HIERARCHY
ROOT Hips
{
	OFFSET 0.000000 0.000000 0.000000
	CHANNELS 6 Xposition Yposition Zposition Xrotation Yrotation Zrotation
	JOINT LeftUpLeg_virtual
	{
		OFFSET 0.000000 0.000000 0.000000
		CHANNELS 3 Xrotation Yrotation Zrotation
		JOINT LeftUpLeg
		{
			OFFSET 15.427100 -6.655098 0.678600
			CHANNELS 3 Xrotation Yrotation Zrotation
			JOINT LeftLeg
			{
				OFFSET 4.081073 -39.591068 13.024000
				CHANNELS 3 Xrotation Yrotation Zrotation
				JOINT LeftFoot
				{
					OFFSET -4.081074 -37.707932 -15.979700
					CHANNELS 3 Xrotation Yrotation Zrotation
					JOINT LeftToeBase
					{
						OFFSET 5.346399 -15.068900 20.645000
						CHANNELS 3 Xrotation Yrotation Zrotation
						JOINT LeftToe_End
						{
							OFFSET 2.754700 0.931300 11.300900
							CHANNELS 3 Xrotation Yrotation Zrotation
							End Site
							{
								OFFSET 0 0 0
							}
						}
					}
				}
			}
		}
	}
	JOINT RightUpLeg_virtual
	{
		OFFSET 0.000000 0.000000 0.000000
		CHANNELS 3 Xrotation Yrotation Zrotation
		JOINT RightUpLeg
		{
			OFFSET -15.569500 -6.655098 0.678600
			CHANNELS 3 Xrotation Yrotation Zrotation
			JOINT RightLeg
			{
				OFFSET -4.081825 -39.591045 13.023800
				CHANNELS 3 Xrotation Yrotation Zrotation
				JOINT RightFoot
				{
					OFFSET 4.081824 -37.707954 -15.979600
					CHANNELS 3 Xrotation Yrotation Zrotation
					JOINT RightToeBase
					{
						OFFSET -5.346400 -15.068900 20.645000
						CHANNELS 3 Xrotation Yrotation Zrotation
						JOINT RightToe_End
						{
							OFFSET -2.754700 0.931300 11.300900
							CHANNELS 3 Xrotation Yrotation Zrotation
							End Site
							{
								OFFSET 0 0 0
							}
						}
					}
				}
			}
		}
	}
	JOINT Spine_virtual
	{
		OFFSET 0.000000 0.000000 0.000000
		CHANNELS 3 Xrotation Yrotation Zrotation
		JOINT Spine
		{
			OFFSET -0.279200 12.230698 -2.892100
			CHANNELS 3 Xrotation Yrotation Zrotation
			JOINT Spine1
			{
				OFFSET -0.232667 10.192268 -1.242267
				CHANNELS 3 Xrotation Yrotation Zrotation
				JOINT Spine1_split
				{
					OFFSET -0.232667 10.192268 -1.242267
					CHANNELS 3 Xrotation Yrotation Zrotation
					JOINT Spine2
					{
						OFFSET -0.232667 10.192268 -1.242267
						CHANNELS 3 Xrotation Yrotation Zrotation
						JOINT Neck_virtual
						{
							OFFSET 0.000000 0.000000 0.000000
							CHANNELS 3 Xrotation Yrotation Zrotation
							JOINT Neck
							{
								OFFSET -0.418800 17.814194 8.416900
								CHANNELS 3 Xrotation Yrotation Zrotation
								JOINT Head
								{
									OFFSET 0.000000 7.031097 3.806800
									CHANNELS 3 Xrotation Yrotation Zrotation
									JOINT HeadTop_End
									{
										OFFSET 0.000000 24.646606 12.978600
										CHANNELS 3 Xrotation Yrotation Zrotation
										End Site
										{
											OFFSET 0 0 0
										}
									}
								}
							}
						}
						JOINT LeftShoulder_virtual
						{
							OFFSET 0.000000 0.000000 0.000000
							CHANNELS 3 Xrotation Yrotation Zrotation
							JOINT LeftShoulder
							{
								OFFSET 8.476499 7.247704 -3.868750
								CHANNELS 3 Xrotation Yrotation Zrotation
								JOINT LeftShoulder_split
								{
									OFFSET 8.476499 7.247704 -3.868750
									CHANNELS 3 Xrotation Yrotation Zrotation
									JOINT LeftArm
									{
										OFFSET 9.308998 -2.777710 0.208600
										CHANNELS 3 Xrotation Yrotation Zrotation
										JOINT LeftForeArm
										{
											OFFSET 29.972298 0.000000 0.000000
											CHANNELS 3 Xrotation Yrotation Zrotation
											JOINT LeftHand
											{
												OFFSET 26.026505 0.000000 0.000000
												CHANNELS 3 Xrotation Yrotation Zrotation
												End Site
												{
													OFFSET 0 0 0
												}
											}
										}
									}
								}
							}
						}
						JOINT RightShoulder_virtual
						{
							OFFSET 0.000000 0.000000 0.000000
							CHANNELS 3 Xrotation Yrotation Zrotation
							JOINT RightShoulder
							{
								OFFSET -7.570500 7.247704 -3.868750
								CHANNELS 3 Xrotation Yrotation Zrotation
								JOINT RightShoulder_split
								{
									OFFSET -7.570500 7.247704 -3.868750
									CHANNELS 3 Xrotation Yrotation Zrotation
									JOINT RightArm
									{
										OFFSET -9.308998 -2.777710 0.208500
										CHANNELS 3 Xrotation Yrotation Zrotation
										JOINT RightForeArm
										{
											OFFSET -29.972300 0.000000 0.000000
											CHANNELS 3 Xrotation Yrotation Zrotation
											JOINT RightHand
											{
												OFFSET -26.026505 0.000000 0.000000
												CHANNELS 3 Xrotation Yrotation Zrotation
												End Site
												{
													OFFSET 0 0 0
												}
											}
										}
									}
								}
							}
						}
					}
				}
			}
		}
	}
}
MOTION
Frames: 4
Frame Time: 0.03333333
2.212107 54.032837 20.570490 0.000000 0.000000 0.000000 8.459183 5.050975 1.536535 -90.738496 -8.853095 14.231088 81.512092 0.806466 -2.031755 8.235332 -4.811306 -10.019445 -4.790330 -0.122708 0.043713 0.000000 0.000000 0.000000 8.351078 4.522756 1.587492 -91.806096 16.995486 -18.298459 85.480289 2.788360 1.307497 3.318133 -1.293383 11.453665 2.432383 1.503885 0.390393 0.000000 0.000000 0.000000 9.132851 3.112156 1.268222 5.987862 -1.769166 -2.310647 15.292734 -1.212774 -0.748136 1.069427 0.360602 0.181677 0.000000 0.000000 0.000000 16.709339 -1.173544 -0.603507 -2.339940 -2.791731 -1.276866 -52.843965 2.260130 -8.037621 0.000000 0.000000 0.000000 16.146712 -1.414227 -0.385395 0.640632 -15.849174 4.536706 -3.892669 -4.884867 -1.818133 -61.381817 -27.660787 -15.698363 176.852900 -69.703918 178.680412 0.000000 0.000000 0.000000 14.947720 -1.804823 -0.541868 1.746721 14.424169 -3.205861 3.867179 0.470401 4.434586 -85.341117 29.695439 30.253746 -178.436534 53.619744 175.079714 0.000000 0.000000 0.000000 
2.212229 54.083885 20.519598 0.000000 0.000000 0.000000 8.891417 4.827885 1.314480 -91.067609 -9.244153 14.124745 81.169435 0.708263 -1.903507 8.370815 -4.959102 -10.081943 -4.642871 -0.087775 0.044403 0.000000 0.000000 0.000000 8.755199 4.285381 1.383197 -91.939988 16.831994 -18.028718 85.087444 2.758901 1.161189 3.101181 -1.255856 11.602550 2.584509 1.486602 0.413187 0.000000 0.000000 0.000000 9.593022 3.109439 1.029072 5.861335 -1.773958 -2.298900 15.651542 -1.234879 -0.650822 0.776693 0.296500 0.169218 0.000000 0.000000 0.000000 16.996810 -1.112317 -0.592602 -0.276240 -2.919104 -1.298870 -51.721614 2.692554 -7.872964 0.000000 0.000000 0.000000 16.542860 -1.384840 -0.332884 0.619597 -14.820353 5.356425 -3.429272 -4.692604 -1.688032 -60.411787 -26.894070 -15.846292 177.371680 -68.918016 179.374824 0.000000 0.000000 0.000000 15.485000 -1.770378 -0.486811 1.455256 13.473779 -2.661416 3.235517 1.133520 4.260471 -83.790391 30.289949 29.426285 -178.385007 53.792384 175.273541 0.000000 0.000000 0.000000 
2.168865 54.119598 20.521963 0.000000 0.000000 0.000000 9.376246 4.592820 1.171468 -91.351260 -9.578335 13.914874 80.794861 0.683388 -1.773745 8.498093 -5.047983 -10.114692 -4.546156 -0.069040 0.105012 0.000000 0.000000 0.000000 9.220006 4.123738 1.240279 -92.098196 16.748548 -17.825737 84.652641 2.709488 1.065281 2.918714 -1.254410 11.688501 2.650441 1.469312 0.483948 0.000000 0.000000 0.000000 10.080704 3.223562 0.781050 5.811628 -1.783296 -2.265476 16.177518 -1.197352 -0.620083 0.609251 0.409914 0.287127 0.000000 0.000000 0.000000 17.363104 -1.011633 -0.634003 2.526407 -2.998857 -1.509002 -50.281308 2.843562 -7.909756 0.000000 0.000000 0.000000 17.132428 -1.316331 -0.355251 0.635160 -14.212311 6.218944 -2.591975 -4.939324 -1.583703 -57.556720 -25.398530 -15.852401 178.081132 -67.473540 -179.737070 0.000000 0.000000 0.000000 16.261311 -1.659371 -0.500070 1.160566 12.733250 -1.915550 2.862468 1.992200 4.152491 -80.832816 31.355397 28.167193 -178.343411 54.595966 175.474841 0.000000 0.000000 0.000000 
2.100032 54.108063 20.566059 0.000000 0.000000 0.000000 9.878664 4.364579 1.136043 -91.588998 -9.762741 13.666925 80.504093 0.738273 -1.692210 8.605359 -5.029634 -10.087487 -4.527398 -0.066113 0.216729 0.000000 0.000000 0.000000 9.715981 4.062520 1.189840 -92.315607 16.747624 -17.759607 84.279944 2.655950 1.035337 2.806896 -1.267087 11.736696 2.593941 1.452925 0.578719 0.000000 0.000000 0.000000 10.535953 3.415493 0.587008 5.799979 -1.812045 -2.242001 16.691896 -1.133223 -0.651867 0.553559 0.393193 0.375604 0.000000 0.000000 0.000000 17.687034 -0.902861 -0.713402 5.549298 -3.005769 -1.906596 -48.895087 2.665379 -8.175598 0.000000 0.000000 0.000000 17.699554 -1.230822 -0.449575 0.668759 -14.071034 6.888919 -1.563645 -5.688579 -1.595876 -53.300351 -23.938807 -15.586818 178.674088 -65.636554 -178.997183 0.000000 0.000000 0.000000 17.034540 -1.509167 -0.558935 0.933976 12.257997 -1.184256 2.601757 2.510786 4.064159 -76.958132 32.622537 26.488894 -178.400156 55.662999 175.770479 0.000000 0.000000 0.000000 
